<?xml version="1.0" encoding="UTF-8" standalone="no"?>
<!DOCTYPE svg PUBLIC "-//W3C//DTD SVG 1.1//EN"
 "http://www.w3.org/Graphics/SVG/1.1/DTD/svg11.dtd">
<!-- Generated by graphviz version 2.40.1 (20161225.0304)
 -->
<!-- Title: %3 Pages: 1 -->
<svg width="581pt" height="260pt"
 viewBox="0.00 0.00 581.45 259.91" xmlns="http://www.w3.org/2000/svg" xmlns:xlink="http://www.w3.org/1999/xlink">
<g id="graph0" class="graph" transform="scale(1 1) rotate(0) translate(4 255.9066)">
<title>%3</title>
<polygon fill="#ffffff" stroke="transparent" points="-4,4 -4,-255.9066 577.4472,-255.9066 577.4472,4 -4,4"/>
<g id="clust1" class="cluster">
<title>cluster5 x 1</title>
<path fill="none" stroke="#000000" d="M453.4472,-129.9533C453.4472,-129.9533 553.4472,-129.9533 553.4472,-129.9533 559.4472,-129.9533 565.4472,-135.9533 565.4472,-141.9533 565.4472,-141.9533 565.4472,-231.9066 565.4472,-231.9066 565.4472,-237.9066 559.4472,-243.9066 553.4472,-243.9066 553.4472,-243.9066 453.4472,-243.9066 453.4472,-243.9066 447.4472,-243.9066 441.4472,-237.9066 441.4472,-231.9066 441.4472,-231.9066 441.4472,-141.9533 441.4472,-141.9533 441.4472,-135.9533 447.4472,-129.9533 453.4472,-129.9533"/>
<text text-anchor="middle" x="543.4472" y="-137.7533" font-family="Times,serif" font-size="14.00" fill="#000000">5 x 1</text>
</g>
<g id="clust2" class="cluster">
<title>cluster20</title>
<path fill="none" stroke="#000000" d="M210.4472,-8C210.4472,-8 312.4472,-8 312.4472,-8 318.4472,-8 324.4472,-14 324.4472,-20 324.4472,-20 324.4472,-109.9533 324.4472,-109.9533 324.4472,-115.9533 318.4472,-121.9533 312.4472,-121.9533 312.4472,-121.9533 210.4472,-121.9533 210.4472,-121.9533 204.4472,-121.9533 198.4472,-115.9533 198.4472,-109.9533 198.4472,-109.9533 198.4472,-20 198.4472,-20 198.4472,-14 204.4472,-8 210.4472,-8"/>
<text text-anchor="middle" x="309.4472" y="-15.8" font-family="Times,serif" font-size="14.00" fill="#000000">20</text>
</g>
<!-- local_ls -->
<g id="node1" class="node">
<title>local_ls</title>
<ellipse fill="none" stroke="#000000" cx="54.4472" cy="-198.43" rx="54.3945" ry="37.4533"/>
<text text-anchor="middle" x="54.4472" y="-209.73" font-family="Times,serif" font-size="14.00" fill="#000000">local_ls</text>
<text text-anchor="middle" x="54.4472" y="-194.73" font-family="Times,serif" font-size="14.00" fill="#000000">~</text>
<text text-anchor="middle" x="54.4472" y="-179.73" font-family="Times,serif" font-size="14.00" fill="#000000">Lognormal</text>
</g>
<!-- y -->
<g id="node5" class="node">
<title>y</title>
<ellipse fill="#d3d3d3" stroke="#000000" cx="261.4472" cy="-76.4767" rx="55.3091" ry="37.4533"/>
<text text-anchor="middle" x="261.4472" y="-87.7767" font-family="Times,serif" font-size="14.00" fill="#000000">y</text>
<text text-anchor="middle" x="261.4472" y="-72.7767" font-family="Times,serif" font-size="14.00" fill="#000000">~</text>
<text text-anchor="middle" x="261.4472" y="-57.7767" font-family="Times,serif" font-size="14.00" fill="#000000">MvNormal</text>
</g>
<!-- local_ls&#45;&gt;y -->
<g id="edge2" class="edge">
<title>local_ls&#45;&gt;y</title>
<path fill="none" stroke="#000000" d="M80.1462,-164.9625C90.9155,-152.6623 104.2358,-139.4382 118.4472,-129.9533 142.9811,-113.5791 173.2071,-101.3354 199.5405,-92.7254"/>
<polygon fill="#000000" stroke="#000000" points="200.942,-95.9532 209.4224,-89.6024 198.8325,-89.2786 200.942,-95.9532"/>
</g>
<!-- global_std -->
<g id="node2" class="node">
<title>global_std</title>
<ellipse fill="none" stroke="#000000" cx="181.4472" cy="-198.43" rx="54.3945" ry="37.4533"/>
<text text-anchor="middle" x="181.4472" y="-209.73" font-family="Times,serif" font-size="14.00" fill="#000000">global_std</text>
<text text-anchor="middle" x="181.4472" y="-194.73" font-family="Times,serif" font-size="14.00" fill="#000000">~</text>
<text text-anchor="middle" x="181.4472" y="-179.73" font-family="Times,serif" font-size="14.00" fill="#000000">Lognormal</text>
</g>
<!-- global_std&#45;&gt;y -->
<g id="edge3" class="edge">
<title>global_std&#45;&gt;y</title>
<path fill="none" stroke="#000000" d="M203.9446,-164.1346C213.0619,-150.236 223.6904,-134.0337 233.3119,-119.3665"/>
<polygon fill="#000000" stroke="#000000" points="236.283,-121.2184 238.8415,-110.9371 230.4299,-117.3788 236.283,-121.2184"/>
</g>
<!-- global_noise_sigma -->
<g id="node3" class="node">
<title>global_noise_sigma</title>
<ellipse fill="none" stroke="#000000" cx="342.4472" cy="-198.43" rx="88.2768" ry="37.4533"/>
<text text-anchor="middle" x="342.4472" y="-209.73" font-family="Times,serif" font-size="14.00" fill="#000000">global_noise_sigma</text>
<text text-anchor="middle" x="342.4472" y="-194.73" font-family="Times,serif" font-size="14.00" fill="#000000">~</text>
<text text-anchor="middle" x="342.4472" y="-179.73" font-family="Times,serif" font-size="14.00" fill="#000000">Lognormal</text>
</g>
<!-- global_noise_sigma&#45;&gt;y -->
<g id="edge4" class="edge">
<title>global_noise_sigma&#45;&gt;y</title>
<path fill="none" stroke="#000000" d="M318.3639,-162.1701C309.4043,-148.6807 299.1545,-133.2486 289.8443,-119.2311"/>
<polygon fill="#000000" stroke="#000000" points="292.637,-117.1097 284.1887,-110.7162 286.8059,-120.9827 292.637,-117.1097"/>
</g>
<!-- param_ls -->
<g id="node4" class="node">
<title>param_ls</title>
<ellipse fill="none" stroke="#000000" cx="503.4472" cy="-198.43" rx="54.3945" ry="37.4533"/>
<text text-anchor="middle" x="503.4472" y="-209.73" font-family="Times,serif" font-size="14.00" fill="#000000">param_ls</text>
<text text-anchor="middle" x="503.4472" y="-194.73" font-family="Times,serif" font-size="14.00" fill="#000000">~</text>
<text text-anchor="middle" x="503.4472" y="-179.73" font-family="Times,serif" font-size="14.00" fill="#000000">Lognormal</text>
</g>
<!-- param_ls&#45;&gt;y -->
<g id="edge1" class="edge">
<title>param_ls&#45;&gt;y</title>
<path fill="none" stroke="#000000" d="M478.3726,-164.8207C467.5937,-152.3536 454.1022,-139.0499 439.4472,-129.9533 404.7402,-108.41 360.8297,-95.0962 325.306,-87.1409"/>
<polygon fill="#000000" stroke="#000000" points="326.0359,-83.718 315.5235,-85.0369 324.564,-90.5615 326.0359,-83.718"/>
</g>
</g>
</svg>
