<?xml version="1.0" encoding="UTF-8" standalone="no"?>
<!DOCTYPE svg PUBLIC "-//W3C//DTD SVG 1.1//EN"
 "http://www.w3.org/Graphics/SVG/1.1/DTD/svg11.dtd">
<!-- Generated by graphviz version 2.47.0 (20210316.1410)
 -->
<!-- Pages: 1 -->
<svg width="698pt" height="260pt"
 viewBox="0.00 0.00 698.02 259.91" xmlns="http://www.w3.org/2000/svg" xmlns:xlink="http://www.w3.org/1999/xlink">
<g id="graph0" class="graph" transform="scale(1 1) rotate(0) translate(4 255.91)">
<polygon fill="white" stroke="transparent" points="-4,4 -4,-255.91 694.02,-255.91 694.02,4 -4,4"/>
<g id="clust1" class="cluster">
<title>cluster3 x 1</title>
<path fill="none" stroke="black" d="M546.02,-129.95C546.02,-129.95 670.02,-129.95 670.02,-129.95 676.02,-129.95 682.02,-135.95 682.02,-141.95 682.02,-141.95 682.02,-231.91 682.02,-231.91 682.02,-237.91 676.02,-243.91 670.02,-243.91 670.02,-243.91 546.02,-243.91 546.02,-243.91 540.02,-243.91 534.02,-237.91 534.02,-231.91 534.02,-231.91 534.02,-141.95 534.02,-141.95 534.02,-135.95 540.02,-129.95 546.02,-129.95"/>
<text text-anchor="middle" x="656.02" y="-137.75" font-family="Times-Roman" font-size="14.00">3 x 1</text>
</g>
<g id="clust2" class="cluster">
<title>cluster20</title>
<path fill="none" stroke="black" d="M322.02,-8C322.02,-8 440.02,-8 440.02,-8 446.02,-8 452.02,-14 452.02,-20 452.02,-20 452.02,-109.95 452.02,-109.95 452.02,-115.95 446.02,-121.95 440.02,-121.95 440.02,-121.95 322.02,-121.95 322.02,-121.95 316.02,-121.95 310.02,-115.95 310.02,-109.95 310.02,-109.95 310.02,-20 310.02,-20 310.02,-14 316.02,-8 322.02,-8"/>
<text text-anchor="middle" x="434.52" y="-15.8" font-family="Times-Roman" font-size="14.00">20</text>
</g>
<!-- global_noise_sigma -->
<g id="node1" class="node">
<title>global_noise_sigma</title>
<ellipse fill="none" stroke="black" cx="111.02" cy="-198.43" rx="111.03" ry="37.45"/>
<text text-anchor="middle" x="111.02" y="-209.73" font-family="Times-Roman" font-size="14.00">global_noise_sigma</text>
<text text-anchor="middle" x="111.02" y="-194.73" font-family="Times-Roman" font-size="14.00">~</text>
<text text-anchor="middle" x="111.02" y="-179.73" font-family="Times-Roman" font-size="14.00">Lognormal</text>
</g>
<!-- y -->
<g id="node5" class="node">
<title>y</title>
<ellipse fill="lightgrey" stroke="black" cx="381.02" cy="-76.48" rx="62.87" ry="37.45"/>
<text text-anchor="middle" x="381.02" y="-87.78" font-family="Times-Roman" font-size="14.00">y</text>
<text text-anchor="middle" x="381.02" y="-72.78" font-family="Times-Roman" font-size="14.00">~</text>
<text text-anchor="middle" x="381.02" y="-57.78" font-family="Times-Roman" font-size="14.00">MvNormal</text>
</g>
<!-- global_noise_sigma&#45;&gt;y -->
<g id="edge1" class="edge">
<title>global_noise_sigma&#45;&gt;y</title>
<path fill="none" stroke="black" d="M163.44,-165.31C184.08,-153.37 208.25,-140.24 231.02,-129.95 258.22,-117.66 289.23,-106.38 315.96,-97.46"/>
<polygon fill="black" stroke="black" points="317.2,-100.74 325.6,-94.28 315.01,-94.09 317.2,-100.74"/>
</g>
<!-- local_ls -->
<g id="node2" class="node">
<title>local_ls</title>
<ellipse fill="none" stroke="black" cx="306.02" cy="-198.43" rx="66.44" ry="37.45"/>
<text text-anchor="middle" x="306.02" y="-209.73" font-family="Times-Roman" font-size="14.00">local_ls</text>
<text text-anchor="middle" x="306.02" y="-194.73" font-family="Times-Roman" font-size="14.00">~</text>
<text text-anchor="middle" x="306.02" y="-179.73" font-family="Times-Roman" font-size="14.00">Lognormal</text>
</g>
<!-- local_ls&#45;&gt;y -->
<g id="edge3" class="edge">
<title>local_ls&#45;&gt;y</title>
<path fill="none" stroke="black" d="M327.71,-162.73C335.87,-149.68 345.26,-134.67 353.86,-120.92"/>
<polygon fill="black" stroke="black" points="357.04,-122.43 359.37,-112.09 351.1,-118.72 357.04,-122.43"/>
</g>
<!-- global_std -->
<g id="node3" class="node">
<title>global_std</title>
<ellipse fill="none" stroke="black" cx="457.02" cy="-198.43" rx="66.44" ry="37.45"/>
<text text-anchor="middle" x="457.02" y="-209.73" font-family="Times-Roman" font-size="14.00">global_std</text>
<text text-anchor="middle" x="457.02" y="-194.73" font-family="Times-Roman" font-size="14.00">~</text>
<text text-anchor="middle" x="457.02" y="-179.73" font-family="Times-Roman" font-size="14.00">Lognormal</text>
</g>
<!-- global_std&#45;&gt;y -->
<g id="edge4" class="edge">
<title>global_std&#45;&gt;y</title>
<path fill="none" stroke="black" d="M435.03,-162.73C426.61,-149.44 416.9,-134.12 408.06,-120.16"/>
<polygon fill="black" stroke="black" points="410.99,-118.25 402.69,-111.68 405.08,-122 410.99,-118.25"/>
</g>
<!-- param_ls -->
<g id="node4" class="node">
<title>param_ls</title>
<ellipse fill="none" stroke="black" cx="608.02" cy="-198.43" rx="66.44" ry="37.45"/>
<text text-anchor="middle" x="608.02" y="-209.73" font-family="Times-Roman" font-size="14.00">param_ls</text>
<text text-anchor="middle" x="608.02" y="-194.73" font-family="Times-Roman" font-size="14.00">~</text>
<text text-anchor="middle" x="608.02" y="-179.73" font-family="Times-Roman" font-size="14.00">Lognormal</text>
</g>
<!-- param_ls&#45;&gt;y -->
<g id="edge2" class="edge">
<title>param_ls&#45;&gt;y</title>
<path fill="none" stroke="black" d="M577.3,-165.17C564.25,-152.86 548.3,-139.5 532.02,-129.95 506.21,-114.83 475.38,-103.14 448.32,-94.67"/>
<polygon fill="black" stroke="black" points="449.12,-91.26 438.53,-91.7 447.08,-97.95 449.12,-91.26"/>
</g>
</g>
</svg>
