<?xml version="1.0" encoding="UTF-8" standalone="no"?>
<!DOCTYPE svg PUBLIC "-//W3C//DTD SVG 1.1//EN"
 "http://www.w3.org/Graphics/SVG/1.1/DTD/svg11.dtd">
<!-- Generated by graphviz version 2.40.1 (20161225.0304)
 -->
<!-- Title: %3 Pages: 1 -->
<svg width="383pt" height="233pt"
 viewBox="0.00 0.00 382.55 232.91" xmlns="http://www.w3.org/2000/svg" xmlns:xlink="http://www.w3.org/1999/xlink">
<g id="graph0" class="graph" transform="scale(1 1) rotate(0) translate(4 228.9066)">
<title>%3</title>
<polygon fill="#ffffff" stroke="transparent" points="-4,4 -4,-228.9066 378.5513,-228.9066 378.5513,4 -4,4"/>
<g id="clust1" class="cluster">
<title>cluster20</title>
<path fill="none" stroke="#000000" d="M142.1041,-8C142.1041,-8 244.1041,-8 244.1041,-8 250.1041,-8 256.1041,-14 256.1041,-20 256.1041,-20 256.1041,-109.9533 256.1041,-109.9533 256.1041,-115.9533 250.1041,-121.9533 244.1041,-121.9533 244.1041,-121.9533 142.1041,-121.9533 142.1041,-121.9533 136.1041,-121.9533 130.1041,-115.9533 130.1041,-109.9533 130.1041,-109.9533 130.1041,-20 130.1041,-20 130.1041,-14 136.1041,-8 142.1041,-8"/>
<text text-anchor="middle" x="241.1041" y="-15.8" font-family="Times,serif" font-size="14.00" fill="#000000">20</text>
</g>
<!-- noise_sigma -->
<g id="node1" class="node">
<title>noise_sigma</title>
<ellipse fill="none" stroke="#000000" cx="60.1041" cy="-187.43" rx="60.2083" ry="37.4533"/>
<text text-anchor="middle" x="60.1041" y="-198.73" font-family="Times,serif" font-size="14.00" fill="#000000">noise_sigma</text>
<text text-anchor="middle" x="60.1041" y="-183.73" font-family="Times,serif" font-size="14.00" fill="#000000">~</text>
<text text-anchor="middle" x="60.1041" y="-168.73" font-family="Times,serif" font-size="14.00" fill="#000000">Lognormal</text>
</g>
<!-- y -->
<g id="node4" class="node">
<title>y</title>
<ellipse fill="#d3d3d3" stroke="#000000" cx="193.1041" cy="-76.4767" rx="55.3091" ry="37.4533"/>
<text text-anchor="middle" x="193.1041" y="-87.7767" font-family="Times,serif" font-size="14.00" fill="#000000">y</text>
<text text-anchor="middle" x="193.1041" y="-72.7767" font-family="Times,serif" font-size="14.00" fill="#000000">~</text>
<text text-anchor="middle" x="193.1041" y="-57.7767" font-family="Times,serif" font-size="14.00" fill="#000000">MvNormal</text>
</g>
<!-- noise_sigma&#45;&gt;y -->
<g id="edge2" class="edge">
<title>noise_sigma&#45;&gt;y</title>
<path fill="none" stroke="#000000" d="M96.0958,-157.4044C112.7741,-143.4908 132.7212,-126.8502 150.1785,-112.2867"/>
<polygon fill="#000000" stroke="#000000" points="152.5669,-114.8523 158.0036,-105.7587 148.0827,-109.4771 152.5669,-114.8523"/>
</g>
<!-- kernel_ls -->
<g id="node2" class="node">
<title>kernel_ls</title>
<ellipse fill="none" stroke="#000000" cx="193.1041" cy="-187.43" rx="54.3945" ry="37.4533"/>
<text text-anchor="middle" x="193.1041" y="-198.73" font-family="Times,serif" font-size="14.00" fill="#000000">kernel_ls</text>
<text text-anchor="middle" x="193.1041" y="-183.73" font-family="Times,serif" font-size="14.00" fill="#000000">~</text>
<text text-anchor="middle" x="193.1041" y="-168.73" font-family="Times,serif" font-size="14.00" fill="#000000">Lognormal</text>
</g>
<!-- kernel_ls&#45;&gt;y -->
<g id="edge1" class="edge">
<title>kernel_ls&#45;&gt;y</title>
<path fill="none" stroke="#000000" d="M193.1041,-149.8662C193.1041,-141.6423 193.1041,-132.8301 193.1041,-124.267"/>
<polygon fill="#000000" stroke="#000000" points="196.6042,-124.0017 193.1041,-114.0017 189.6042,-124.0017 196.6042,-124.0017"/>
</g>
<!-- kernel_std -->
<g id="node3" class="node">
<title>kernel_std</title>
<ellipse fill="none" stroke="#000000" cx="320.1041" cy="-187.43" rx="54.3945" ry="37.4533"/>
<text text-anchor="middle" x="320.1041" y="-198.73" font-family="Times,serif" font-size="14.00" fill="#000000">kernel_std</text>
<text text-anchor="middle" x="320.1041" y="-183.73" font-family="Times,serif" font-size="14.00" fill="#000000">~</text>
<text text-anchor="middle" x="320.1041" y="-168.73" font-family="Times,serif" font-size="14.00" fill="#000000">Lognormal</text>
</g>
<!-- kernel_std&#45;&gt;y -->
<g id="edge3" class="edge">
<title>kernel_std&#45;&gt;y</title>
<path fill="none" stroke="#000000" d="M286.4038,-157.9878C270.7423,-144.3052 251.9531,-127.89 235.3537,-113.388"/>
<polygon fill="#000000" stroke="#000000" points="237.2377,-110.3863 227.4041,-106.4428 232.6322,-115.6579 237.2377,-110.3863"/>
</g>
</g>
</svg>
