<?xml version="1.0" encoding="UTF-8" standalone="no"?>
<!DOCTYPE svg PUBLIC "-//W3C//DTD SVG 1.1//EN"
 "http://www.w3.org/Graphics/SVG/1.1/DTD/svg11.dtd">
<!-- Generated by graphviz version 2.46.1 (20210213.1702)
 -->
<!-- Pages: 1 -->
<svg width="424pt" height="260pt"
 viewBox="0.00 0.00 424.00 259.91" xmlns="http://www.w3.org/2000/svg" xmlns:xlink="http://www.w3.org/1999/xlink">
<g id="graph0" class="graph" transform="scale(1 1) rotate(0) translate(4 255.91)">
<polygon fill="white" stroke="transparent" points="-4,4 -4,-255.91 420,-255.91 420,4 -4,4"/>
<g id="clust1" class="cluster">
<title>cluster3 x 4</title>
<path fill="none" stroke="black" d="M20,-129.95C20,-129.95 96,-129.95 96,-129.95 102,-129.95 108,-135.95 108,-141.95 108,-141.95 108,-231.91 108,-231.91 108,-237.91 102,-243.91 96,-243.91 96,-243.91 20,-243.91 20,-243.91 14,-243.91 8,-237.91 8,-231.91 8,-231.91 8,-141.95 8,-141.95 8,-135.95 14,-129.95 20,-129.95"/>
<text text-anchor="middle" x="86" y="-137.75" font-family="Times,serif" font-size="14.00">3 x 4</text>
</g>
<g id="clust2" class="cluster">
<title>cluster4 x 5</title>
<path fill="none" stroke="black" d="M128,-129.95C128,-129.95 204,-129.95 204,-129.95 210,-129.95 216,-135.95 216,-141.95 216,-141.95 216,-231.91 216,-231.91 216,-237.91 210,-243.91 204,-243.91 204,-243.91 128,-243.91 128,-243.91 122,-243.91 116,-237.91 116,-231.91 116,-231.91 116,-141.95 116,-141.95 116,-135.95 122,-129.95 128,-129.95"/>
<text text-anchor="middle" x="194" y="-137.75" font-family="Times,serif" font-size="14.00">4 x 5</text>
</g>
<g id="clust3" class="cluster">
<title>cluster5 x 1</title>
<path fill="none" stroke="black" d="M236,-129.95C236,-129.95 312,-129.95 312,-129.95 318,-129.95 324,-135.95 324,-141.95 324,-141.95 324,-231.91 324,-231.91 324,-237.91 318,-243.91 312,-243.91 312,-243.91 236,-243.91 236,-243.91 230,-243.91 224,-237.91 224,-231.91 224,-231.91 224,-141.95 224,-141.95 224,-135.95 230,-129.95 236,-129.95"/>
<text text-anchor="middle" x="302" y="-137.75" font-family="Times,serif" font-size="14.00">5 x 1</text>
</g>
<g id="clust4" class="cluster">
<title>cluster200 x 3</title>
<path fill="none" stroke="black" d="M344,-140.93C344,-140.93 396,-140.93 396,-140.93 402,-140.93 408,-146.93 408,-152.93 408,-152.93 408,-220.93 408,-220.93 408,-226.93 402,-232.93 396,-232.93 396,-232.93 344,-232.93 344,-232.93 338,-232.93 332,-226.93 332,-220.93 332,-220.93 332,-152.93 332,-152.93 332,-146.93 338,-140.93 344,-140.93"/>
<text text-anchor="middle" x="379" y="-148.73" font-family="Times,serif" font-size="14.00">200 x 3</text>
</g>
<g id="clust5" class="cluster">
<title>cluster200</title>
<path fill="none" stroke="black" d="M176,-8C176,-8 264,-8 264,-8 270,-8 276,-14 276,-20 276,-20 276,-109.95 276,-109.95 276,-115.95 270,-121.95 264,-121.95 264,-121.95 176,-121.95 176,-121.95 170,-121.95 164,-115.95 164,-109.95 164,-109.95 164,-20 164,-20 164,-14 170,-8 176,-8"/>
<text text-anchor="middle" x="257.5" y="-15.8" font-family="Times,serif" font-size="14.00">200</text>
</g>
<!-- w1 -->
<g id="node1" class="node">
<title>w1</title>
<ellipse fill="none" stroke="black" cx="58" cy="-198.43" rx="41.94" ry="37.45"/>
<text text-anchor="middle" x="58" y="-209.73" font-family="Times,serif" font-size="14.00">w1</text>
<text text-anchor="middle" x="58" y="-194.73" font-family="Times,serif" font-size="14.00">~</text>
<text text-anchor="middle" x="58" y="-179.73" font-family="Times,serif" font-size="14.00">Normal</text>
</g>
<!-- Y_obs -->
<g id="node5" class="node">
<title>Y_obs</title>
<ellipse fill="lightgrey" stroke="black" cx="220" cy="-76.48" rx="48.17" ry="37.45"/>
<text text-anchor="middle" x="220" y="-87.78" font-family="Times,serif" font-size="14.00">Y_obs</text>
<text text-anchor="middle" x="220" y="-72.78" font-family="Times,serif" font-size="14.00">~</text>
<text text-anchor="middle" x="220" y="-57.78" font-family="Times,serif" font-size="14.00">Bernoulli</text>
</g>
<!-- w1&#45;&gt;Y_obs -->
<g id="edge3" class="edge">
<title>w1&#45;&gt;Y_obs</title>
<path fill="none" stroke="black" d="M78.84,-165.65C87.97,-153.41 99.46,-139.97 112,-129.95 128.51,-116.76 148.88,-105.79 167.46,-97.35"/>
<polygon fill="black" stroke="black" points="168.96,-100.51 176.7,-93.29 166.14,-94.11 168.96,-100.51"/>
</g>
<!-- w2 -->
<g id="node2" class="node">
<title>w2</title>
<ellipse fill="none" stroke="black" cx="166" cy="-198.43" rx="41.94" ry="37.45"/>
<text text-anchor="middle" x="166" y="-209.73" font-family="Times,serif" font-size="14.00">w2</text>
<text text-anchor="middle" x="166" y="-194.73" font-family="Times,serif" font-size="14.00">~</text>
<text text-anchor="middle" x="166" y="-179.73" font-family="Times,serif" font-size="14.00">Normal</text>
</g>
<!-- w2&#45;&gt;Y_obs -->
<g id="edge4" class="edge">
<title>w2&#45;&gt;Y_obs</title>
<path fill="none" stroke="black" d="M181.33,-163.38C187.21,-150.32 194,-135.23 200.23,-121.38"/>
<polygon fill="black" stroke="black" points="203.53,-122.59 204.44,-112.03 197.15,-119.71 203.53,-122.59"/>
</g>
<!-- w3 -->
<g id="node3" class="node">
<title>w3</title>
<ellipse fill="none" stroke="black" cx="274" cy="-198.43" rx="41.94" ry="37.45"/>
<text text-anchor="middle" x="274" y="-209.73" font-family="Times,serif" font-size="14.00">w3</text>
<text text-anchor="middle" x="274" y="-194.73" font-family="Times,serif" font-size="14.00">~</text>
<text text-anchor="middle" x="274" y="-179.73" font-family="Times,serif" font-size="14.00">Normal</text>
</g>
<!-- w3&#45;&gt;Y_obs -->
<g id="edge1" class="edge">
<title>w3&#45;&gt;Y_obs</title>
<path fill="none" stroke="black" d="M258.67,-163.38C252.79,-150.32 246,-135.23 239.77,-121.38"/>
<polygon fill="black" stroke="black" points="242.85,-119.71 235.56,-112.03 236.47,-122.59 242.85,-119.71"/>
</g>
<!-- features -->
<g id="node4" class="node">
<title>features</title>
<path fill="lightgrey" stroke="black" d="M387.5,-224.93C387.5,-224.93 352.5,-224.93 352.5,-224.93 346.5,-224.93 340.5,-218.93 340.5,-212.93 340.5,-212.93 340.5,-183.93 340.5,-183.93 340.5,-177.93 346.5,-171.93 352.5,-171.93 352.5,-171.93 387.5,-171.93 387.5,-171.93 393.5,-171.93 399.5,-177.93 399.5,-183.93 399.5,-183.93 399.5,-212.93 399.5,-212.93 399.5,-218.93 393.5,-224.93 387.5,-224.93"/>
<text text-anchor="middle" x="370" y="-209.73" font-family="Times,serif" font-size="14.00">features</text>
<text text-anchor="middle" x="370" y="-194.73" font-family="Times,serif" font-size="14.00">~</text>
<text text-anchor="middle" x="370" y="-179.73" font-family="Times,serif" font-size="14.00">Data</text>
</g>
<!-- features&#45;&gt;Y_obs -->
<g id="edge2" class="edge">
<title>features&#45;&gt;Y_obs</title>
<path fill="none" stroke="black" d="M358.5,-171.9C351.3,-158.12 340.92,-141.59 328,-129.95 312.23,-115.75 291.93,-104.55 273.18,-96.2"/>
<polygon fill="black" stroke="black" points="274.42,-92.92 263.85,-92.21 271.67,-99.36 274.42,-92.92"/>
</g>
</g>
</svg>
