<?xml version="1.0" encoding="UTF-8" standalone="no"?>
<!DOCTYPE svg PUBLIC "-//W3C//DTD SVG 1.1//EN"
 "http://www.w3.org/Graphics/SVG/1.1/DTD/svg11.dtd">
<!-- Generated by graphviz version 2.46.1 (20210213.1702)
 -->
<!-- Pages: 1 -->
<svg width="383pt" height="233pt"
 viewBox="0.00 0.00 382.55 232.91" xmlns="http://www.w3.org/2000/svg" xmlns:xlink="http://www.w3.org/1999/xlink">
<g id="graph0" class="graph" transform="scale(1 1) rotate(0) translate(4 228.91)">
<polygon fill="white" stroke="transparent" points="-4,4 -4,-228.91 378.55,-228.91 378.55,4 -4,4"/>
<g id="clust1" class="cluster">
<title>cluster20</title>
<path fill="none" stroke="black" d="M142.1,-8C142.1,-8 244.1,-8 244.1,-8 250.1,-8 256.1,-14 256.1,-20 256.1,-20 256.1,-109.95 256.1,-109.95 256.1,-115.95 250.1,-121.95 244.1,-121.95 244.1,-121.95 142.1,-121.95 142.1,-121.95 136.1,-121.95 130.1,-115.95 130.1,-109.95 130.1,-109.95 130.1,-20 130.1,-20 130.1,-14 136.1,-8 142.1,-8"/>
<text text-anchor="middle" x="241.1" y="-15.8" font-family="Times,serif" font-size="14.00">20</text>
</g>
<!-- noise_sigma -->
<g id="node1" class="node">
<title>noise_sigma</title>
<ellipse fill="none" stroke="black" cx="60.1" cy="-187.43" rx="60.21" ry="37.45"/>
<text text-anchor="middle" x="60.1" y="-198.73" font-family="Times,serif" font-size="14.00">noise_sigma</text>
<text text-anchor="middle" x="60.1" y="-183.73" font-family="Times,serif" font-size="14.00">~</text>
<text text-anchor="middle" x="60.1" y="-168.73" font-family="Times,serif" font-size="14.00">Lognormal</text>
</g>
<!-- y -->
<g id="node4" class="node">
<title>y</title>
<ellipse fill="lightgrey" stroke="black" cx="193.1" cy="-76.48" rx="55.31" ry="37.45"/>
<text text-anchor="middle" x="193.1" y="-87.78" font-family="Times,serif" font-size="14.00">y</text>
<text text-anchor="middle" x="193.1" y="-72.78" font-family="Times,serif" font-size="14.00">~</text>
<text text-anchor="middle" x="193.1" y="-57.78" font-family="Times,serif" font-size="14.00">MvNormal</text>
</g>
<!-- noise_sigma&#45;&gt;y -->
<g id="edge1" class="edge">
<title>noise_sigma&#45;&gt;y</title>
<path fill="none" stroke="black" d="M95.75,-157.23C112.56,-143.46 132.76,-126.91 150.39,-112.47"/>
<polygon fill="black" stroke="black" points="152.77,-115.05 158.28,-106 148.33,-109.63 152.77,-115.05"/>
</g>
<!-- kernel_ls -->
<g id="node2" class="node">
<title>kernel_ls</title>
<ellipse fill="none" stroke="black" cx="193.1" cy="-187.43" rx="54.39" ry="37.45"/>
<text text-anchor="middle" x="193.1" y="-198.73" font-family="Times,serif" font-size="14.00">kernel_ls</text>
<text text-anchor="middle" x="193.1" y="-183.73" font-family="Times,serif" font-size="14.00">~</text>
<text text-anchor="middle" x="193.1" y="-168.73" font-family="Times,serif" font-size="14.00">Lognormal</text>
</g>
<!-- kernel_ls&#45;&gt;y -->
<g id="edge3" class="edge">
<title>kernel_ls&#45;&gt;y</title>
<path fill="none" stroke="black" d="M193.1,-149.85C193.1,-141.67 193.1,-132.89 193.1,-124.37"/>
<polygon fill="black" stroke="black" points="196.6,-124.15 193.1,-114.15 189.6,-124.15 196.6,-124.15"/>
</g>
<!-- kernel_std -->
<g id="node3" class="node">
<title>kernel_std</title>
<ellipse fill="none" stroke="black" cx="320.1" cy="-187.43" rx="54.39" ry="37.45"/>
<text text-anchor="middle" x="320.1" y="-198.73" font-family="Times,serif" font-size="14.00">kernel_std</text>
<text text-anchor="middle" x="320.1" y="-183.73" font-family="Times,serif" font-size="14.00">~</text>
<text text-anchor="middle" x="320.1" y="-168.73" font-family="Times,serif" font-size="14.00">Lognormal</text>
</g>
<!-- kernel_std&#45;&gt;y -->
<g id="edge2" class="edge">
<title>kernel_std&#45;&gt;y</title>
<path fill="none" stroke="black" d="M286.74,-157.8C270.68,-144.03 251.27,-127.38 234.3,-112.82"/>
<polygon fill="black" stroke="black" points="236.56,-110.14 226.69,-106.29 232,-115.46 236.56,-110.14"/>
</g>
</g>
</svg>
