<?xml version="1.0" encoding="UTF-8" standalone="no"?>
<!DOCTYPE svg PUBLIC "-//W3C//DTD SVG 1.1//EN"
 "http://www.w3.org/Graphics/SVG/1.1/DTD/svg11.dtd">
<!-- Generated by graphviz version 2.40.1 (20161225.0304)
 -->
<!-- Title: %3 Pages: 1 -->
<svg width="581pt" height="260pt"
 viewBox="0.00 0.00 581.45 259.91" xmlns="http://www.w3.org/2000/svg" xmlns:xlink="http://www.w3.org/1999/xlink">
<g id="graph0" class="graph" transform="scale(1 1) rotate(0) translate(4 255.9066)">
<title>%3</title>
<polygon fill="#ffffff" stroke="transparent" points="-4,4 -4,-255.9066 577.4472,-255.9066 577.4472,4 -4,4"/>
<g id="clust1" class="cluster">
<title>cluster3 x 1</title>
<path fill="none" stroke="#000000" d="M453.4472,-129.9533C453.4472,-129.9533 553.4472,-129.9533 553.4472,-129.9533 559.4472,-129.9533 565.4472,-135.9533 565.4472,-141.9533 565.4472,-141.9533 565.4472,-231.9066 565.4472,-231.9066 565.4472,-237.9066 559.4472,-243.9066 553.4472,-243.9066 553.4472,-243.9066 453.4472,-243.9066 453.4472,-243.9066 447.4472,-243.9066 441.4472,-237.9066 441.4472,-231.9066 441.4472,-231.9066 441.4472,-141.9533 441.4472,-141.9533 441.4472,-135.9533 447.4472,-129.9533 453.4472,-129.9533"/>
<text text-anchor="middle" x="543.4472" y="-137.7533" font-family="Times,serif" font-size="14.00" fill="#000000">3 x 1</text>
</g>
<g id="clust2" class="cluster">
<title>cluster21</title>
<path fill="none" stroke="#000000" d="M244.4472,-8C244.4472,-8 346.4472,-8 346.4472,-8 352.4472,-8 358.4472,-14 358.4472,-20 358.4472,-20 358.4472,-109.9533 358.4472,-109.9533 358.4472,-115.9533 352.4472,-121.9533 346.4472,-121.9533 346.4472,-121.9533 244.4472,-121.9533 244.4472,-121.9533 238.4472,-121.9533 232.4472,-115.9533 232.4472,-109.9533 232.4472,-109.9533 232.4472,-20 232.4472,-20 232.4472,-14 238.4472,-8 244.4472,-8"/>
<text text-anchor="middle" x="343.4472" y="-15.8" font-family="Times,serif" font-size="14.00" fill="#000000">21</text>
</g>
<!-- global_std -->
<g id="node1" class="node">
<title>global_std</title>
<ellipse fill="none" stroke="#000000" cx="54.4472" cy="-198.43" rx="54.3945" ry="37.4533"/>
<text text-anchor="middle" x="54.4472" y="-209.73" font-family="Times,serif" font-size="14.00" fill="#000000">global_std</text>
<text text-anchor="middle" x="54.4472" y="-194.73" font-family="Times,serif" font-size="14.00" fill="#000000">~</text>
<text text-anchor="middle" x="54.4472" y="-179.73" font-family="Times,serif" font-size="14.00" fill="#000000">Lognormal</text>
</g>
<!-- y -->
<g id="node5" class="node">
<title>y</title>
<ellipse fill="#d3d3d3" stroke="#000000" cx="295.4472" cy="-76.4767" rx="55.3091" ry="37.4533"/>
<text text-anchor="middle" x="295.4472" y="-87.7767" font-family="Times,serif" font-size="14.00" fill="#000000">y</text>
<text text-anchor="middle" x="295.4472" y="-72.7767" font-family="Times,serif" font-size="14.00" fill="#000000">~</text>
<text text-anchor="middle" x="295.4472" y="-57.7767" font-family="Times,serif" font-size="14.00" fill="#000000">MvNormal</text>
</g>
<!-- global_std&#45;&gt;y -->
<g id="edge2" class="edge">
<title>global_std&#45;&gt;y</title>
<path fill="none" stroke="#000000" d="M79.5291,-164.8325C90.3091,-152.3669 103.7993,-139.0613 118.4472,-129.9533 152.8113,-108.5859 196.2496,-95.2952 231.4935,-87.308"/>
<polygon fill="#000000" stroke="#000000" points="232.646,-90.6393 241.6744,-85.095 231.1591,-83.799 232.646,-90.6393"/>
</g>
<!-- global_noise_sigma -->
<g id="node2" class="node">
<title>global_noise_sigma</title>
<ellipse fill="none" stroke="#000000" cx="215.4472" cy="-198.43" rx="88.2768" ry="37.4533"/>
<text text-anchor="middle" x="215.4472" y="-209.73" font-family="Times,serif" font-size="14.00" fill="#000000">global_noise_sigma</text>
<text text-anchor="middle" x="215.4472" y="-194.73" font-family="Times,serif" font-size="14.00" fill="#000000">~</text>
<text text-anchor="middle" x="215.4472" y="-179.73" font-family="Times,serif" font-size="14.00" fill="#000000">Lognormal</text>
</g>
<!-- global_noise_sigma&#45;&gt;y -->
<g id="edge1" class="edge">
<title>global_noise_sigma&#45;&gt;y</title>
<path fill="none" stroke="#000000" d="M239.2333,-162.1701C248.0822,-148.6807 258.2055,-133.2486 267.4008,-119.2311"/>
<polygon fill="#000000" stroke="#000000" points="270.4279,-120.9974 272.9865,-110.7162 264.5749,-117.1579 270.4279,-120.9974"/>
</g>
<!-- local_ls -->
<g id="node3" class="node">
<title>local_ls</title>
<ellipse fill="none" stroke="#000000" cx="376.4472" cy="-198.43" rx="54.3945" ry="37.4533"/>
<text text-anchor="middle" x="376.4472" y="-209.73" font-family="Times,serif" font-size="14.00" fill="#000000">local_ls</text>
<text text-anchor="middle" x="376.4472" y="-194.73" font-family="Times,serif" font-size="14.00" fill="#000000">~</text>
<text text-anchor="middle" x="376.4472" y="-179.73" font-family="Times,serif" font-size="14.00" fill="#000000">Lognormal</text>
</g>
<!-- local_ls&#45;&gt;y -->
<g id="edge4" class="edge">
<title>local_ls&#45;&gt;y</title>
<path fill="none" stroke="#000000" d="M353.6687,-164.1346C344.4374,-150.236 333.676,-134.0337 323.9342,-119.3665"/>
<polygon fill="#000000" stroke="#000000" points="326.7837,-117.3307 318.3355,-110.9371 320.9527,-121.2036 326.7837,-117.3307"/>
</g>
<!-- param_ls -->
<g id="node4" class="node">
<title>param_ls</title>
<ellipse fill="none" stroke="#000000" cx="503.4472" cy="-198.43" rx="54.3945" ry="37.4533"/>
<text text-anchor="middle" x="503.4472" y="-209.73" font-family="Times,serif" font-size="14.00" fill="#000000">param_ls</text>
<text text-anchor="middle" x="503.4472" y="-194.73" font-family="Times,serif" font-size="14.00" fill="#000000">~</text>
<text text-anchor="middle" x="503.4472" y="-179.73" font-family="Times,serif" font-size="14.00" fill="#000000">Lognormal</text>
</g>
<!-- param_ls&#45;&gt;y -->
<g id="edge3" class="edge">
<title>param_ls&#45;&gt;y</title>
<path fill="none" stroke="#000000" d="M477.7595,-164.9456C466.9917,-152.6431 453.6695,-139.422 439.4472,-129.9533 414.5363,-113.3685 383.7947,-101.0479 357.1211,-92.44"/>
<polygon fill="#000000" stroke="#000000" points="358.085,-89.0744 347.4963,-89.4356 355.9991,-95.7564 358.085,-89.0744"/>
</g>
</g>
</svg>
