<?xml version="1.0" encoding="UTF-8" standalone="no"?>
<!DOCTYPE svg PUBLIC "-//W3C//DTD SVG 1.1//EN"
 "http://www.w3.org/Graphics/SVG/1.1/DTD/svg11.dtd">
<!-- Generated by graphviz version 2.46.1 (20210213.1702)
 -->
<!-- Pages: 1 -->
<svg width="208pt" height="260pt"
 viewBox="0.00 0.00 208.00 259.91" xmlns="http://www.w3.org/2000/svg" xmlns:xlink="http://www.w3.org/1999/xlink">
<g id="graph0" class="graph" transform="scale(1 1) rotate(0) translate(4 255.91)">
<polygon fill="white" stroke="transparent" points="-4,4 -4,-255.91 204,-255.91 204,4 -4,4"/>
<g id="clust1" class="cluster">
<title>cluster3</title>
<path fill="none" stroke="black" d="M20,-129.95C20,-129.95 96,-129.95 96,-129.95 102,-129.95 108,-135.95 108,-141.95 108,-141.95 108,-231.91 108,-231.91 108,-237.91 102,-243.91 96,-243.91 96,-243.91 20,-243.91 20,-243.91 14,-243.91 8,-237.91 8,-231.91 8,-231.91 8,-141.95 8,-141.95 8,-135.95 14,-129.95 20,-129.95"/>
<text text-anchor="middle" x="96.5" y="-137.75" font-family="Times,serif" font-size="14.00">3</text>
</g>
<g id="clust2" class="cluster">
<title>cluster200 x 3</title>
<path fill="none" stroke="black" d="M128,-140.93C128,-140.93 180,-140.93 180,-140.93 186,-140.93 192,-146.93 192,-152.93 192,-152.93 192,-220.93 192,-220.93 192,-226.93 186,-232.93 180,-232.93 180,-232.93 128,-232.93 128,-232.93 122,-232.93 116,-226.93 116,-220.93 116,-220.93 116,-152.93 116,-152.93 116,-146.93 122,-140.93 128,-140.93"/>
<text text-anchor="middle" x="163" y="-148.73" font-family="Times,serif" font-size="14.00">200 x 3</text>
</g>
<g id="clust3" class="cluster">
<title>cluster200</title>
<path fill="none" stroke="black" d="M54,-8C54,-8 142,-8 142,-8 148,-8 154,-14 154,-20 154,-20 154,-109.95 154,-109.95 154,-115.95 148,-121.95 142,-121.95 142,-121.95 54,-121.95 54,-121.95 48,-121.95 42,-115.95 42,-109.95 42,-109.95 42,-20 42,-20 42,-14 48,-8 54,-8"/>
<text text-anchor="middle" x="135.5" y="-15.8" font-family="Times,serif" font-size="14.00">200</text>
</g>
<!-- theta -->
<g id="node1" class="node">
<title>theta</title>
<ellipse fill="none" stroke="black" cx="58" cy="-198.43" rx="41.94" ry="37.45"/>
<text text-anchor="middle" x="58" y="-209.73" font-family="Times,serif" font-size="14.00">theta</text>
<text text-anchor="middle" x="58" y="-194.73" font-family="Times,serif" font-size="14.00">~</text>
<text text-anchor="middle" x="58" y="-179.73" font-family="Times,serif" font-size="14.00">Normal</text>
</g>
<!-- Y_obs -->
<g id="node3" class="node">
<title>Y_obs</title>
<ellipse fill="lightgrey" stroke="black" cx="98" cy="-76.48" rx="48.17" ry="37.45"/>
<text text-anchor="middle" x="98" y="-87.78" font-family="Times,serif" font-size="14.00">Y_obs</text>
<text text-anchor="middle" x="98" y="-72.78" font-family="Times,serif" font-size="14.00">~</text>
<text text-anchor="middle" x="98" y="-57.78" font-family="Times,serif" font-size="14.00">Bernoulli</text>
</g>
<!-- theta&#45;&gt;Y_obs -->
<g id="edge2" class="edge">
<title>theta&#45;&gt;Y_obs</title>
<path fill="none" stroke="black" d="M69.68,-162.41C73.79,-150.07 78.48,-136.01 82.84,-122.93"/>
<polygon fill="black" stroke="black" points="86.26,-123.76 86.1,-113.16 79.62,-121.54 86.26,-123.76"/>
</g>
<!-- features -->
<g id="node2" class="node">
<title>features</title>
<path fill="lightgrey" stroke="black" d="M171.5,-224.93C171.5,-224.93 136.5,-224.93 136.5,-224.93 130.5,-224.93 124.5,-218.93 124.5,-212.93 124.5,-212.93 124.5,-183.93 124.5,-183.93 124.5,-177.93 130.5,-171.93 136.5,-171.93 136.5,-171.93 171.5,-171.93 171.5,-171.93 177.5,-171.93 183.5,-177.93 183.5,-183.93 183.5,-183.93 183.5,-212.93 183.5,-212.93 183.5,-218.93 177.5,-224.93 171.5,-224.93"/>
<text text-anchor="middle" x="154" y="-209.73" font-family="Times,serif" font-size="14.00">features</text>
<text text-anchor="middle" x="154" y="-194.73" font-family="Times,serif" font-size="14.00">~</text>
<text text-anchor="middle" x="154" y="-179.73" font-family="Times,serif" font-size="14.00">Data</text>
</g>
<!-- features&#45;&gt;Y_obs -->
<g id="edge1" class="edge">
<title>features&#45;&gt;Y_obs</title>
<path fill="none" stroke="black" d="M141.99,-171.7C135.1,-156.94 126.27,-138.03 118.33,-121.03"/>
<polygon fill="black" stroke="black" points="121.43,-119.4 114.03,-111.82 115.09,-122.36 121.43,-119.4"/>
</g>
</g>
</svg>
